<svg width="342" height="120" viewBox="0 0 342 120" fill="none" xmlns="http://www.w3.org/2000/svg">
    <path d="M58.8677 55.1954L56.1263 46.5975L40.5506 53.3263L42.1704 36.1306H33.0742L34.6941 53.3263L18.6199 46.5975L15.6293 55.1954L32.825 58.8089L21.112 72.0172L28.5884 77.126L37.3108 62.2979L45.9086 77.126L53.5096 72.0172L42.1704 58.8089L58.8677 55.1954Z"
          fill="#4C37CA"/>
    <path d="M58.8677 55.1954L59.1707 56.5955L60.7114 56.2621L60.2325 54.7602L58.8677 55.1954ZM56.1263 46.5975L57.4912 46.1624L57.0106 44.655L55.5582 45.2824L56.1263 46.5975ZM40.5506 53.3263L39.1243 53.1919L38.8974 55.601L41.1187 54.6414L40.5506 53.3263ZM42.1704 36.1306L43.5967 36.265L43.7443 34.6981H42.1704V36.1306ZM33.0742 36.1306V34.6981H31.5003L31.6479 36.265L33.0742 36.1306ZM34.6941 53.3263L34.1409 54.6477L36.3443 55.5701L36.1203 53.1919L34.6941 53.3263ZM18.6199 46.5975L19.173 45.2761L17.7674 44.6877L17.2668 46.1269L18.6199 46.5975ZM15.6293 55.1954L14.2763 54.7247L13.7414 56.2625L15.3347 56.5973L15.6293 55.1954ZM32.825 58.8089L33.8968 59.7594L35.5331 57.9142L33.1196 57.407L32.825 58.8089ZM21.112 72.0172L20.0402 71.0667L18.9617 72.2829L20.3038 73.2L21.112 72.0172ZM28.5884 77.126L27.7801 78.3088L29.0459 79.1737L29.8231 77.8524L28.5884 77.126ZM37.3108 62.2979L38.5501 61.5793L37.3197 59.4573L36.076 61.5716L37.3108 62.2979ZM45.9086 77.126L44.6693 77.8446L45.4372 79.169L46.7078 78.315L45.9086 77.126ZM53.5096 72.0172L54.3087 73.2061L55.6465 72.307L54.5966 71.084L53.5096 72.0172ZM42.1704 58.8089L41.8674 57.4088L39.5171 57.9175L41.0835 59.7421L42.1704 58.8089ZM60.2325 54.7602L57.4912 46.1624L54.7615 47.0327L57.5028 55.6305L60.2325 54.7602ZM55.5582 45.2824L39.9824 52.0112L41.1187 54.6414L56.6944 47.9126L55.5582 45.2824ZM41.9768 53.4606L43.5967 36.265L40.7442 35.9963L39.1243 53.1919L41.9768 53.4606ZM42.1704 34.6981H33.0742V37.5632H42.1704V34.6981ZM31.6479 36.265L33.2678 53.4606L36.1203 53.1919L34.5004 35.9963L31.6479 36.265ZM35.2472 52.0048L19.173 45.2761L18.0667 47.919L34.1409 54.6477L35.2472 52.0048ZM17.2668 46.1269L14.2763 54.7247L16.9824 55.666L19.9729 47.0682L17.2668 46.1269ZM15.3347 56.5973L32.5304 60.2109L33.1196 57.407L15.9239 53.7934L15.3347 56.5973ZM31.7532 57.8585L20.0402 71.0667L22.1838 72.9677L33.8968 59.7594L31.7532 57.8585ZM20.3038 73.2L27.7801 78.3088L29.3966 75.9433L21.9202 70.8344L20.3038 73.2ZM29.8231 77.8524L38.5456 63.0242L36.076 61.5716L27.3536 76.3997L29.8231 77.8524ZM36.0715 63.0165L44.6693 77.8446L47.1479 76.4074L38.5501 61.5793L36.0715 63.0165ZM46.7078 78.315L54.3087 73.2061L52.7105 70.8282L45.1095 75.9371L46.7078 78.315ZM54.5966 71.084L43.2574 57.8758L41.0835 59.7421L52.4226 72.9503L54.5966 71.084ZM42.4735 60.2091L59.1707 56.5955L58.5646 53.7952L41.8674 57.4088L42.4735 60.2091Z"
          fill="#4C37CA"/>
    <path d="M77.6851 87.2607L64.4107 35.0482H76.5789L85.1335 75.0926L93.1718 35.0482H107.552L115.37 75.0926L123.408 35.0482H134.912L122.523 87.2607H108.364L100.178 46.5527L92.0656 87.2607H77.6851ZM137.045 49.7975C137.29 47.1427 137.905 44.8811 138.888 43.0129C139.872 41.1446 141.174 39.5468 142.797 38.2193C144.468 36.8919 146.386 35.9332 148.549 35.3432C150.761 34.7041 153.244 34.3845 155.997 34.3845C158.21 34.3845 160.299 34.6303 162.266 35.122C164.282 35.5645 166.101 36.3265 167.723 37.4081C169.395 38.4897 170.722 39.9155 171.705 41.6854C172.738 43.4553 173.254 45.6186 173.254 48.1751C173.254 50.3383 172.713 52.4032 171.632 54.3698C170.55 56.3364 168.977 57.8851 166.912 59.0158C169.911 59.9991 172.074 61.6461 173.402 63.9569C174.729 66.2676 175.344 68.9716 175.245 72.069C175.147 74.9205 174.532 77.3296 173.402 79.2961C172.271 81.2627 170.821 82.8851 169.051 84.1634C167.281 85.3925 165.24 86.302 162.93 86.892C160.619 87.482 158.21 87.777 155.702 87.777C150.147 87.777 145.599 86.5233 142.059 84.0159C138.52 81.5085 136.356 77.5262 135.57 72.069H146.115C146.46 73.2981 146.951 74.3059 147.59 75.0926C148.279 75.8792 149.041 76.5183 149.877 77.01C150.761 77.4525 151.696 77.772 152.679 77.9687C153.662 78.1162 154.67 78.1899 155.702 78.1899C156.882 78.1899 158.013 78.067 159.095 77.8212C160.176 77.5754 161.135 77.1821 161.971 76.6412C162.807 76.1004 163.47 75.3876 163.962 74.5026C164.454 73.5685 164.7 72.4377 164.7 71.1103C164.7 70.127 164.478 69.2174 164.036 68.3816C163.643 67.5459 163.102 66.9313 162.413 66.538C161.528 65.948 160.545 65.5793 159.464 65.4318C158.431 65.2351 157.35 65.1368 156.219 65.1368H150.983V56.4347H154.523C155.801 56.4347 156.956 56.2872 157.989 55.9922C159.021 55.6481 159.955 55.1319 160.791 54.4436C161.381 53.9028 161.873 53.2882 162.266 52.5999C162.659 51.8624 162.856 51.0021 162.856 50.0188C162.856 48.8388 162.659 47.8555 162.266 47.0689C161.873 46.2331 161.332 45.594 160.644 45.1515C159.955 44.6599 159.144 44.3157 158.21 44.1191C157.276 43.9224 156.292 43.8241 155.26 43.8241C153.392 43.8241 151.745 44.3157 150.319 45.299C148.893 46.2331 147.959 47.7326 147.517 49.7975H137.045ZM183.097 87.2607V35.0482H202.345C204.852 35.0482 207.31 35.2695 209.719 35.712C212.129 36.1053 214.439 36.8919 216.652 38.0718C220.585 40.0876 223.535 43.062 225.501 46.9952C227.517 50.9283 228.525 55.6727 228.525 61.2282C228.525 69.6353 226.337 76.0759 221.961 80.5498C217.635 85.0238 211.268 87.2607 202.861 87.2607H183.097ZM202.935 77.8212C203.623 77.8212 204.361 77.772 205.147 77.6737C205.934 77.5754 206.72 77.4525 207.507 77.305C208.294 77.1083 209.031 76.8871 209.719 76.6412C210.408 76.3954 210.998 76.125 211.489 75.83C213.505 74.4534 215.005 72.5114 215.988 70.0041C217.02 67.4475 217.537 64.5222 217.537 61.2282C217.537 58.6225 217.242 56.2626 216.652 54.1486C216.062 52.0345 215.152 50.24 213.923 48.7651C212.546 47.1427 210.777 46.0365 208.613 45.4465C206.499 44.8565 204.41 44.5615 202.345 44.5615H193.79V77.8212H202.935ZM245.895 35.0482L270.674 70.0041V35.0482H281.146V87.2607H270.895L246.116 52.4524V87.2607H235.644V35.0482H245.895ZM300.954 77.305L297.193 87.2607H285.541L305.748 35.0482H317.842L337.754 87.2607H326.028L322.414 77.305H300.954ZM304.052 67.8654H319.243L311.721 46.3314L304.052 67.8654Z"
          fill="#0F0F0F"/>
</svg>
